<svg
    version="1.1"
    baseProfile="full"
    width="1920"
    height="1080"
    viewBox="0 0 1920 1080"
    xmlns="http://www.w3.org/2000/svg"
>
  <defs>
    <!-- Enkel, lys bakgrunn med en radial gradient -->
    <radialGradient id="bgGradient" cx="50%" cy="50%" r="70%">
      <stop offset="0%" stop-color="#f8f4ec"/>
      <stop offset="100%" stop-color="#d9ccb9"/>
    </radialGradient>

    <!-- Gradient for selve fleinsopp-hatten (fra lys topp til mørkere bunn) -->
    <linearGradient id="capGradient" x1="0%" y1="0%" x2="0%" y2="100%">
      <stop offset="0%" stop-color="#baa378" />
      <stop offset="100%" stop-color="#7b6143" />
    </linearGradient>
    
    <!-- Gruppe for en mer naturtro, stilisert spiss fleinsopp -->
    <g id="fleinsoppBetter">
      <!-- Sopp-hatt: kjegleform med en lett spiss -->
      <path
        d="
          M 0,0
          C -2,3 -5,15 -6,28
          Q -7,35 -7,38
          C -5,40  5,40  7,38
          Q 7,35  6,28
          C 5,15  2,3   0,0
          Z
        "
        fill="url(#capGradient)"
      />
      <!-- Stilken: slank, vertikal fasong som strekker seg ned fra hattens kant -->
      <path
        d="
          M -1,38
          C -1,60 -1,80 -1,98
          Q 0,100 1,98
          C 1,80  1,60  1,38
          Z
        "
        fill="#8b6e44"
        fill-opacity="0.8"
      />
    </g>
  </defs>

  <!-- Bakgrunn -->
  <rect
    x="0" y="0"
    width="100%" height="100%"
    fill="url(#bgGradient)"
  />

  <!-- Plasser flere eksemplarer av fleinsopp rundt i bildet med ulike posisjoner/skaleringer -->
  <!-- (Justér gjerne antall og plassering for din egen layout) -->
  <use href="#fleinsoppBetter" transform="translate(300, 400) scale(1.5)" />
  <use href="#fleinsoppBetter" transform="translate(700, 450) scale(2.0)" />
  <use href="#fleinsoppBetter" transform="translate(1200, 300) scale(1.8)" />
  <use href="#fleinsoppBetter" transform="translate(1500, 600) scale(2.2)" />
  <use href="#fleinsoppBetter" transform="translate(400, 800) scale(1.6)" />
  <use href="#fleinsoppBetter" transform="translate(900, 750) scale(1.4)" />
  <use href="#fleinsoppBetter" transform="translate(600, 250) scale(1.2)" />
  <use href="#fleinsoppBetter" transform="translate(200, 650) scale(1.7)" />
</svg>
