<svg width="555" height="498" viewBox="0 0 555 498" fill="none" xmlns="http://www.w3.org/2000/svg">
<path d="M286 3C261.682 3 247 99.6441 247 140.066C247 176.185 257.707 155.194 278.407 150.315C280.874 149.734 283.411 149.381 286 149.381C288.589 149.381 291.126 149.734 293.593 150.315C314.293 155.194 325 176.185 325 140.066C325 99.6441 310.318 3 286 3Z" fill="#876F45"/>
<path d="M277.454 345H294.546C302.083 345 277.454 231.5 293.593 150.315C291.126 149.734 288.589 149.381 286 149.381C283.411 149.381 280.874 149.734 278.407 150.315C247 225 269.917 345 277.454 345Z" fill="#876F45"/>
<path d="M277.454 345C288.687 345 283.313 345 294.546 345M277.454 345C269.917 345 247 225 278.407 150.315M277.454 345H294.546M294.546 345C302.083 345 277.454 231.5 293.593 150.315M293.593 150.315C314.293 155.194 325 176.185 325 140.066C325 99.6441 310.318 3 286 3C261.682 3 247 99.6441 247 140.066C247 176.185 257.707 155.194 278.407 150.315M293.593 150.315C291.126 149.734 288.589 149.381 286 149.381C283.411 149.381 280.874 149.734 278.407 150.315" stroke="#212121" stroke-width="6"/>
<path d="M414.742 21.8781C437.697 29.9081 419.642 125.979 406.295 164.134C394.368 198.227 391.193 174.878 373.265 163.437C371.128 162.074 368.85 160.904 366.406 160.049C363.962 159.194 361.451 158.689 358.931 158.423C337.781 156.193 320.743 172.471 332.67 138.378C346.017 100.223 391.788 13.8481 414.742 21.8781Z" fill="#876F45"/>
<path d="M309.879 347.517L293.745 341.873C286.631 339.384 347.357 240.383 358.931 158.423C361.451 158.689 363.962 159.194 366.406 160.049C368.85 160.904 371.128 162.074 373.265 163.437C378.249 244.304 316.993 350.006 309.879 347.517Z" fill="#876F45"/>
<path d="M309.879 347.517C299.276 343.808 304.348 345.582 293.745 341.873M309.879 347.517C316.993 350.006 378.249 244.304 373.265 163.437M309.879 347.517L293.745 341.873M293.745 341.873C286.631 339.384 347.357 240.383 358.931 158.423M358.931 158.423C337.781 156.193 320.743 172.471 332.67 138.378C346.017 100.223 391.788 13.8481 414.742 21.8781C437.697 29.9081 419.642 125.979 406.295 164.134C394.368 198.227 391.193 174.878 373.265 163.437M358.931 158.423C361.451 158.689 363.962 159.194 366.406 160.049C368.85 160.904 371.128 162.074 373.265 163.437" stroke="#212121" stroke-width="6"/>
<path d="M263.345 349.647L246.95 354.482C239.721 356.614 231.239 240.782 192.795 167.478C194.997 166.223 197.33 165.167 199.813 164.435C202.297 163.702 204.83 163.323 207.36 163.183C258.611 225.933 270.574 347.515 263.345 349.647Z" fill="#876F45"/>
<path d="M158.407 24.0318C181.732 17.1529 223.152 105.697 234.586 144.468C244.802 179.112 228.595 162.007 207.36 163.183C204.83 163.323 202.297 163.702 199.813 164.435C197.33 165.167 194.997 166.223 192.795 167.478C174.321 178.013 169.988 201.175 159.771 166.532C148.337 127.761 135.082 30.9106 158.407 24.0318Z" fill="#876F45"/>
<path d="M263.345 349.647C252.57 352.824 257.724 351.304 246.95 354.482M263.345 349.647C270.574 347.515 258.611 225.933 207.36 163.183M263.345 349.647L246.95 354.482M246.95 354.482C239.721 356.614 231.239 240.782 192.795 167.478M192.795 167.478C174.321 178.013 169.988 201.175 159.771 166.532C148.337 127.761 135.082 30.9106 158.407 24.0318C181.732 17.1529 223.152 105.697 234.586 144.468C244.802 179.112 228.595 162.007 207.36 163.183M192.795 167.478C194.997 166.223 197.33 165.167 199.813 164.435C202.297 163.702 204.83 163.323 207.36 163.183" stroke="#212121" stroke-width="6"/>
<path d="M3.52273 414V367.455H35.2955V376.591H14.7727V386.136H33.2727V395.295H14.7727V414H3.52273ZM52.0739 367.455V414H40.9602V367.455H52.0739ZM75.4659 414.659C71.8144 414.659 68.6629 413.939 66.0114 412.5C63.375 411.045 61.3447 408.977 59.9205 406.295C58.5114 403.598 57.8068 400.394 57.8068 396.682C57.8068 393.076 58.5189 389.924 59.9432 387.227C61.3674 384.515 63.375 382.409 65.9659 380.909C68.5568 379.394 71.6098 378.636 75.125 378.636C77.6098 378.636 79.8826 379.023 81.9432 379.795C84.0038 380.568 85.7841 381.712 87.2841 383.227C88.7841 384.742 89.9508 386.614 90.7841 388.841C91.6174 391.053 92.0341 393.591 92.0341 396.455V399.227H61.6932V392.773H81.6932C81.678 391.591 81.3977 390.538 80.8523 389.614C80.3068 388.689 79.5568 387.97 78.6023 387.455C77.6629 386.924 76.5795 386.659 75.3523 386.659C74.1098 386.659 72.9962 386.939 72.0114 387.5C71.0265 388.045 70.2462 388.795 69.6705 389.75C69.0947 390.689 68.7917 391.758 68.7614 392.955V399.523C68.7614 400.947 69.0417 402.197 69.6023 403.273C70.1629 404.333 70.9583 405.159 71.9886 405.75C73.0189 406.341 74.2462 406.636 75.6705 406.636C76.6553 406.636 77.5492 406.5 78.3523 406.227C79.1553 405.955 79.8447 405.553 80.4205 405.023C80.9962 404.492 81.428 403.841 81.7159 403.068L91.9205 403.364C91.4962 405.652 90.5644 407.644 89.125 409.341C87.7008 411.023 85.8295 412.333 83.5114 413.273C81.1932 414.197 78.5114 414.659 75.4659 414.659ZM97.7102 414V379.091H108.824V414H97.7102ZM103.278 375.023C101.718 375.023 100.377 374.508 99.2557 373.477C98.1345 372.432 97.5739 371.174 97.5739 369.705C97.5739 368.25 98.1345 367.008 99.2557 365.977C100.377 364.932 101.718 364.409 103.278 364.409C104.854 364.409 106.195 364.932 107.301 365.977C108.422 367.008 108.983 368.25 108.983 369.705C108.983 371.174 108.422 372.432 107.301 373.477C106.195 374.508 104.854 375.023 103.278 375.023ZM127.011 394.091V414H115.898V379.091H126.466V385.5H126.852C127.625 383.364 128.943 381.689 130.807 380.477C132.67 379.25 134.89 378.636 137.466 378.636C139.92 378.636 142.049 379.189 143.852 380.295C145.67 381.386 147.08 382.917 148.08 384.886C149.095 386.841 149.595 389.129 149.58 391.75V414H138.466V393.932C138.481 391.992 137.989 390.477 136.989 389.386C136.004 388.295 134.633 387.75 132.875 387.75C131.708 387.75 130.678 388.008 129.784 388.523C128.905 389.023 128.223 389.742 127.739 390.682C127.269 391.621 127.027 392.758 127.011 394.091ZM186.938 389.75L176.733 390.023C176.627 389.295 176.339 388.652 175.869 388.091C175.4 387.515 174.786 387.068 174.028 386.75C173.286 386.417 172.422 386.25 171.438 386.25C170.15 386.25 169.051 386.508 168.142 387.023C167.248 387.538 166.809 388.235 166.824 389.114C166.809 389.795 167.081 390.386 167.642 390.886C168.218 391.386 169.241 391.788 170.71 392.091L177.438 393.364C180.922 394.03 183.513 395.136 185.21 396.682C186.922 398.227 187.786 400.273 187.801 402.818C187.786 405.212 187.074 407.295 185.665 409.068C184.271 410.841 182.362 412.22 179.938 413.205C177.513 414.174 174.741 414.659 171.619 414.659C166.634 414.659 162.703 413.636 159.824 411.591C156.96 409.53 155.324 406.773 154.915 403.318L165.892 403.045C166.134 404.318 166.763 405.288 167.778 405.955C168.794 406.621 170.089 406.955 171.665 406.955C173.089 406.955 174.248 406.689 175.142 406.159C176.036 405.629 176.491 404.924 176.506 404.045C176.491 403.258 176.142 402.629 175.46 402.159C174.778 401.674 173.71 401.295 172.256 401.023L166.165 399.864C162.665 399.227 160.059 398.053 158.347 396.341C156.634 394.614 155.786 392.417 155.801 389.75C155.786 387.417 156.407 385.424 157.665 383.773C158.922 382.106 160.71 380.833 163.028 379.955C165.347 379.076 168.081 378.636 171.233 378.636C175.96 378.636 179.688 379.629 182.415 381.614C185.142 383.583 186.65 386.295 186.938 389.75ZM209.568 414.659C205.902 414.659 202.75 413.909 200.114 412.409C197.492 410.894 195.47 408.788 194.045 406.091C192.636 403.379 191.932 400.235 191.932 396.659C191.932 393.068 192.636 389.924 194.045 387.227C195.47 384.515 197.492 382.409 200.114 380.909C202.75 379.394 205.902 378.636 209.568 378.636C213.235 378.636 216.379 379.394 219 380.909C221.636 382.409 223.659 384.515 225.068 387.227C226.492 389.924 227.205 393.068 227.205 396.659C227.205 400.235 226.492 403.379 225.068 406.091C223.659 408.788 221.636 410.894 219 412.409C216.379 413.909 213.235 414.659 209.568 414.659ZM209.636 406.273C210.97 406.273 212.098 405.864 213.023 405.045C213.947 404.227 214.652 403.091 215.136 401.636C215.636 400.182 215.886 398.5 215.886 396.591C215.886 394.652 215.636 392.955 215.136 391.5C214.652 390.045 213.947 388.909 213.023 388.091C212.098 387.273 210.97 386.864 209.636 386.864C208.258 386.864 207.091 387.273 206.136 388.091C205.197 388.909 204.477 390.045 203.977 391.5C203.492 392.955 203.25 394.652 203.25 396.591C203.25 398.5 203.492 400.182 203.977 401.636C204.477 403.091 205.197 404.227 206.136 405.045C207.091 405.864 208.258 406.273 209.636 406.273ZM232.898 427.091V379.091H243.898V385.068H244.239C244.693 384.008 245.337 382.985 246.17 382C247.019 381.015 248.095 380.212 249.398 379.591C250.716 378.955 252.292 378.636 254.125 378.636C256.549 378.636 258.814 379.273 260.92 380.545C263.042 381.818 264.754 383.78 266.057 386.432C267.36 389.083 268.011 392.462 268.011 396.568C268.011 400.523 267.383 403.833 266.125 406.5C264.883 409.167 263.201 411.167 261.08 412.5C258.973 413.833 256.633 414.5 254.057 414.5C252.299 414.5 250.777 414.212 249.489 413.636C248.201 413.061 247.117 412.303 246.239 411.364C245.375 410.424 244.708 409.417 244.239 408.341H244.011V427.091H232.898ZM243.784 396.545C243.784 398.424 244.034 400.061 244.534 401.455C245.049 402.848 245.784 403.932 246.739 404.705C247.708 405.462 248.867 405.841 250.216 405.841C251.58 405.841 252.739 405.462 253.693 404.705C254.648 403.932 255.367 402.848 255.852 401.455C256.352 400.061 256.602 398.424 256.602 396.545C256.602 394.667 256.352 393.038 255.852 391.659C255.367 390.28 254.648 389.212 253.693 388.455C252.754 387.697 251.595 387.318 250.216 387.318C248.852 387.318 247.693 387.689 246.739 388.432C245.784 389.174 245.049 390.235 244.534 391.614C244.034 392.992 243.784 394.636 243.784 396.545ZM273.835 427.091V379.091H284.835V385.068H285.176C285.631 384.008 286.275 382.985 287.108 382C287.956 381.015 289.032 380.212 290.335 379.591C291.653 378.955 293.229 378.636 295.062 378.636C297.487 378.636 299.752 379.273 301.858 380.545C303.979 381.818 305.691 383.78 306.994 386.432C308.297 389.083 308.949 392.462 308.949 396.568C308.949 400.523 308.32 403.833 307.062 406.5C305.82 409.167 304.138 411.167 302.017 412.5C299.911 413.833 297.57 414.5 294.994 414.5C293.237 414.5 291.714 414.212 290.426 413.636C289.138 413.061 288.055 412.303 287.176 411.364C286.312 410.424 285.646 409.417 285.176 408.341H284.949V427.091H273.835ZM284.722 396.545C284.722 398.424 284.972 400.061 285.472 401.455C285.987 402.848 286.722 403.932 287.676 404.705C288.646 405.462 289.805 405.841 291.153 405.841C292.517 405.841 293.676 405.462 294.631 404.705C295.585 403.932 296.305 402.848 296.79 401.455C297.29 400.061 297.54 398.424 297.54 396.545C297.54 394.667 297.29 393.038 296.79 391.659C296.305 390.28 295.585 389.212 294.631 388.455C293.691 387.697 292.532 387.318 291.153 387.318C289.79 387.318 288.631 387.689 287.676 388.432C286.722 389.174 285.987 390.235 285.472 391.614C284.972 392.992 284.722 394.636 284.722 396.545ZM324.795 404.841L324.841 391.591H326.386L336.205 379.091H348.795L334.205 397H331.273L324.795 404.841ZM314.773 414V367.455H325.886V414H314.773ZM336.455 414L327.318 399.5L334.636 391.614L349.295 414H336.455ZM367.631 414.659C363.964 414.659 360.813 413.909 358.176 412.409C355.555 410.894 353.532 408.788 352.108 406.091C350.699 403.379 349.994 400.235 349.994 396.659C349.994 393.068 350.699 389.924 352.108 387.227C353.532 384.515 355.555 382.409 358.176 380.909C360.813 379.394 363.964 378.636 367.631 378.636C371.297 378.636 374.441 379.394 377.062 380.909C379.699 382.409 381.722 384.515 383.131 387.227C384.555 389.924 385.267 393.068 385.267 396.659C385.267 400.235 384.555 403.379 383.131 406.091C381.722 408.788 379.699 410.894 377.062 412.409C374.441 413.909 371.297 414.659 367.631 414.659ZM367.699 406.273C369.032 406.273 370.161 405.864 371.085 405.045C372.009 404.227 372.714 403.091 373.199 401.636C373.699 400.182 373.949 398.5 373.949 396.591C373.949 394.652 373.699 392.955 373.199 391.5C372.714 390.045 372.009 388.909 371.085 388.091C370.161 387.273 369.032 386.864 367.699 386.864C366.32 386.864 365.153 387.273 364.199 388.091C363.259 388.909 362.54 390.045 362.04 391.5C361.555 392.955 361.312 394.652 361.312 396.591C361.312 398.5 361.555 400.182 362.04 401.636C362.54 403.091 363.259 404.227 364.199 405.045C365.153 405.864 366.32 406.273 367.699 406.273ZM402.074 394.091V414H390.96V379.091H401.528V385.5H401.915C402.688 383.364 404.006 381.689 405.869 380.477C407.733 379.25 409.953 378.636 412.528 378.636C414.983 378.636 417.112 379.189 418.915 380.295C420.733 381.386 422.142 382.917 423.142 384.886C424.157 386.841 424.657 389.129 424.642 391.75V414H413.528V393.932C413.544 391.992 413.051 390.477 412.051 389.386C411.066 388.295 409.695 387.75 407.938 387.75C406.771 387.75 405.741 388.008 404.847 388.523C403.968 389.023 403.286 389.742 402.801 390.682C402.331 391.621 402.089 392.758 402.074 394.091ZM451.227 379.091V387.273H429.205V379.091H451.227ZM433.818 370.727H444.932V403.023C444.932 403.705 445.038 404.258 445.25 404.682C445.477 405.091 445.803 405.386 446.227 405.568C446.652 405.735 447.159 405.818 447.75 405.818C448.174 405.818 448.621 405.78 449.091 405.705C449.576 405.614 449.939 405.538 450.182 405.477L451.864 413.5C451.333 413.652 450.583 413.841 449.614 414.068C448.659 414.295 447.515 414.439 446.182 414.5C443.576 414.621 441.341 414.318 439.477 413.591C437.629 412.848 436.212 411.697 435.227 410.136C434.258 408.576 433.788 406.614 433.818 404.25V370.727ZM456.898 414V379.091H467.693V385.455H468.057C468.693 383.152 469.731 381.439 471.17 380.318C472.61 379.182 474.284 378.614 476.193 378.614C476.708 378.614 477.239 378.652 477.784 378.727C478.33 378.788 478.837 378.886 479.307 379.023V388.682C478.777 388.5 478.08 388.356 477.216 388.25C476.367 388.144 475.61 388.091 474.943 388.091C473.625 388.091 472.436 388.386 471.375 388.977C470.33 389.553 469.504 390.364 468.898 391.409C468.307 392.439 468.011 393.652 468.011 395.045V414H456.898ZM498.318 414.659C494.652 414.659 491.5 413.909 488.864 412.409C486.242 410.894 484.22 408.788 482.795 406.091C481.386 403.379 480.682 400.235 480.682 396.659C480.682 393.068 481.386 389.924 482.795 387.227C484.22 384.515 486.242 382.409 488.864 380.909C491.5 379.394 494.652 378.636 498.318 378.636C501.985 378.636 505.129 379.394 507.75 380.909C510.386 382.409 512.409 384.515 513.818 387.227C515.242 389.924 515.955 393.068 515.955 396.659C515.955 400.235 515.242 403.379 513.818 406.091C512.409 408.788 510.386 410.894 507.75 412.409C505.129 413.909 501.985 414.659 498.318 414.659ZM498.386 406.273C499.72 406.273 500.848 405.864 501.773 405.045C502.697 404.227 503.402 403.091 503.886 401.636C504.386 400.182 504.636 398.5 504.636 396.591C504.636 394.652 504.386 392.955 503.886 391.5C503.402 390.045 502.697 388.909 501.773 388.091C500.848 387.273 499.72 386.864 498.386 386.864C497.008 386.864 495.841 387.273 494.886 388.091C493.947 388.909 493.227 390.045 492.727 391.5C492.242 392.955 492 394.652 492 396.591C492 398.5 492.242 400.182 492.727 401.636C493.227 403.091 493.947 404.227 494.886 405.045C495.841 405.864 497.008 406.273 498.386 406.273ZM532.761 367.455V414H521.648V367.455H532.761ZM550.949 367.455V414H539.835V367.455H550.949Z" fill="white"/>
<path d="M107 495C117.029 481.286 133.942 474.429 167.176 474.429C173.152 474.429 178.444 471.587 181.737 468.177C193.614 455.877 227.51 447 267.471 447C292.408 447 314.983 450.457 331.32 456.045C348.149 461.802 369.005 467.571 387.824 467.571C421.058 467.571 442.985 477.857 448 488.143" stroke="#876F45" stroke-width="6" stroke-linecap="round"/>
<path d="M207 471C207 471 212.139 471.655 216.745 472.242C221.351 472.828 226.489 474.725 226.489 474.725" stroke="#876F45" stroke-width="6" stroke-linecap="round" stroke-linejoin="round"/>
</svg>
