<svg width="331" height="364" viewBox="0 0 331 364" fill="none" xmlns="http://www.w3.org/2000/svg">
<path d="M165 3C140.682 3 126 99.6441 126 140.066C126 176.185 136.707 155.194 157.407 150.315C159.874 149.734 162.411 149.381 165 149.381C167.589 149.381 170.126 149.734 172.593 150.315C193.293 155.194 204 176.185 204 140.066C204 99.6441 189.318 3 165 3Z" fill="#876F45"/>
<path d="M156.454 345H173.546C181.083 345 156.454 231.5 172.593 150.315C170.126 149.734 167.589 149.381 165 149.381C162.411 149.381 159.874 149.734 157.407 150.315C126 225 148.917 345 156.454 345Z" fill="#876F45"/>
<path d="M156.454 345C167.687 345 162.313 345 173.546 345M156.454 345C148.917 345 126 225 157.407 150.315M156.454 345H173.546M173.546 345C181.083 345 156.454 231.5 172.593 150.315M172.593 150.315C193.293 155.194 204 176.185 204 140.066C204 99.6441 189.318 3 165 3C140.682 3 126 99.6441 126 140.066C126 176.185 136.707 155.194 157.407 150.315M172.593 150.315C170.126 149.734 167.589 149.381 165 149.381C162.411 149.381 159.874 149.734 157.407 150.315" stroke="#212121" stroke-width="6"/>
<path d="M293.742 21.8781C316.697 29.9081 298.642 125.979 285.295 164.134C273.368 198.227 270.193 174.878 252.265 163.437C250.128 162.074 247.85 160.904 245.406 160.049C242.962 159.194 240.451 158.689 237.931 158.423C216.781 156.193 199.743 172.471 211.67 138.378C225.017 100.223 270.788 13.8481 293.742 21.8781Z" fill="#876F45"/>
<path d="M188.879 347.517L172.745 341.873C165.631 339.384 226.357 240.383 237.931 158.423C240.451 158.689 242.962 159.194 245.406 160.049C247.85 160.904 250.128 162.074 252.265 163.437C257.249 244.304 195.993 350.006 188.879 347.517Z" fill="#876F45"/>
<path d="M188.879 347.517C178.276 343.808 183.348 345.582 172.745 341.873M188.879 347.517C195.993 350.006 257.249 244.304 252.265 163.437M188.879 347.517L172.745 341.873M172.745 341.873C165.631 339.384 226.357 240.383 237.931 158.423M237.931 158.423C216.781 156.193 199.743 172.471 211.67 138.378C225.017 100.223 270.788 13.8481 293.742 21.8781C316.697 29.9081 298.642 125.979 285.295 164.134C273.368 198.227 270.193 174.878 252.265 163.437M237.931 158.423C240.451 158.689 242.962 159.194 245.406 160.049C247.85 160.904 250.128 162.074 252.265 163.437" stroke="#212121" stroke-width="6"/>
<path d="M142.345 349.647L125.95 354.482C118.721 356.614 110.239 240.782 71.7952 167.478C73.9965 166.223 76.3301 165.167 78.8135 164.435C81.2968 163.702 83.8299 163.323 86.3601 163.183C137.611 225.933 149.574 347.515 142.345 349.647Z" fill="#876F45"/>
<path d="M37.4072 24.0318C60.7324 17.1529 102.152 105.697 113.586 144.468C123.802 179.112 107.595 162.007 86.3601 163.183C83.8299 163.323 81.2968 163.702 78.8135 164.435C76.3301 165.167 73.9965 166.223 71.7952 167.478C53.3206 178.013 48.988 201.175 38.7713 166.532C27.3373 127.761 14.0821 30.9106 37.4072 24.0318Z" fill="#876F45"/>
<path d="M142.345 349.647C131.57 352.824 136.724 351.304 125.95 354.482M142.345 349.647C149.574 347.515 137.611 225.933 86.3601 163.183M142.345 349.647L125.95 354.482M125.95 354.482C118.721 356.614 110.239 240.782 71.7952 167.478M71.7952 167.478C53.3206 178.013 48.988 201.175 38.7713 166.532C27.3373 127.761 14.0821 30.9106 37.4072 24.0318C60.7324 17.1529 102.152 105.697 113.586 144.468C123.802 179.112 107.595 162.007 86.3601 163.183M71.7952 167.478C73.9965 166.223 76.3301 165.167 78.8135 164.435C81.2968 163.702 83.8299 163.323 86.3601 163.183" stroke="#212121" stroke-width="6"/>
</svg>
