<svg width="141" height="147" viewBox="0 0 141 147" fill="none" xmlns="http://www.w3.org/2000/svg">
<path fill-rule="evenodd" clip-rule="evenodd" d="M50.1289 45.3701C50.1289 41.538 47.2945 38.8591 44.3906 37.4381C41.3837 35.9668 37.5361 35.3881 33.802 36.0485C26.2279 37.3879 21.5072 43.4291 21.4804 49.3618C21.4629 53.2078 24.3078 55.8909 27.2129 57.3102C30.2222 58.7804 34.0742 59.3572 37.8072 58.6971C45.2352 57.3835 50.1289 52.2038 50.1289 45.3701ZM41.7534 42.8275C39.9216 41.9311 37.367 41.5111 34.8468 41.9568C29.9124 42.8294 27.493 46.571 27.4803 49.389C27.4779 49.9184 27.908 50.9721 29.8467 51.9192C31.681 52.8154 34.2412 53.2346 36.7624 52.7887C41.8429 51.8903 44.1289 48.7963 44.1289 45.3701C44.1289 44.8322 43.6882 43.7743 41.7534 42.8275Z" fill="#C08CD8"/>
<path d="M34.8468 41.9568C37.367 41.5111 39.9216 41.9311 41.7534 42.8275C43.6882 43.7743 44.1289 44.8322 44.1289 45.3701C44.1289 48.7963 41.8429 51.8903 36.7624 52.7887C34.2412 53.2346 31.681 52.8154 29.8467 51.9192C27.908 50.9721 27.4779 49.9184 27.4803 49.389C27.493 46.571 29.9124 42.8294 34.8468 41.9568Z" fill="#C08CD8"/>
<path d="M53.4289 24.2233C54.7036 23.9875 56.0126 24.2067 56.9225 24.637C57.3647 24.8461 57.5721 25.0206 57.6623 25.1179C57.5375 26.0858 56.5416 27.7153 54.1565 28.1565C52.7055 28.4249 51.3698 28.2693 50.5428 27.9217C50.1444 27.7543 49.9784 27.5921 49.9299 27.5318L49.9227 27.5232C49.9102 27.5086 49.9095 27.5078 49.9095 27.4632C49.9095 26.539 50.8692 24.6968 53.4289 24.2233Z" fill="#C08CD8"/>
<path fill-rule="evenodd" clip-rule="evenodd" d="M63.676 24.9166C63.676 21.9597 61.3446 20.0912 59.4878 19.213C57.4517 18.2501 54.8644 17.8559 52.3375 18.3234C47.2943 19.2563 43.9095 23.2941 43.9095 27.4632C43.9095 30.5963 46.062 32.5468 48.2179 33.453C50.3368 34.3436 52.8975 34.4912 55.248 34.0564C60.2912 33.1235 63.676 29.0857 63.676 24.9166ZM56.9225 24.637C56.0126 24.2067 54.7036 23.9875 53.4289 24.2233C50.8692 24.6968 49.9095 26.539 49.9095 27.4632C49.9095 27.5078 49.9102 27.5086 49.9227 27.5232L49.9299 27.5318C49.9784 27.5921 50.1444 27.7543 50.5428 27.9217C51.3698 28.2693 52.7055 28.4249 54.1565 28.1565C56.5416 27.7153 57.5375 26.0858 57.6623 25.1179C57.5721 25.0206 57.3647 24.8461 56.9225 24.637Z" fill="#C08CD8"/>
<path fill-rule="evenodd" clip-rule="evenodd" d="M35.0196 75.9878L35.8082 75.8852C33.4254 83.1852 38.2912 90.0008 44.7943 91.3747C43.2787 101.071 42.1112 110.76 41.8687 118.914C41.6967 124.7 41.9519 130.553 43.3155 135.26C44.001 137.626 45.167 140.428 47.3379 142.757C49.7553 145.351 53.1145 147 57.0229 147H83.9771C87.8855 147 91.2447 145.351 93.6621 142.757C95.833 140.428 96.999 137.626 97.6845 135.26C99.0481 130.553 99.3033 124.7 99.1313 118.914C98.8888 110.76 97.7213 101.071 96.2057 91.3747C102.709 90.0008 107.575 83.1852 105.192 75.8852L105.98 75.9878C110.734 76.6067 115.2 77.1881 118.929 77.4156C123.106 77.6704 128.603 77.7052 133.171 75.2067C135.781 73.779 137.929 71.6261 139.309 68.7799C140.611 66.0937 141 63.2685 141 60.7004C141 54.9493 138.929 48.3806 135.84 42.1779C132.661 35.7957 128.04 29.0615 122.122 22.8989C110.296 10.5831 92.7082 0 70.5 0C48.2918 0 30.7044 10.5831 18.8778 22.8989C12.9601 29.0615 8.33871 35.7957 5.16038 42.1779C2.07142 48.3806 0 54.9493 0 60.7004C0 63.2685 0.388533 66.0937 1.69093 68.7799C3.07091 71.6261 5.21925 73.779 7.82934 75.2067C12.3972 77.7052 17.8938 77.6704 22.0707 77.4156C25.7999 77.1881 30.2656 76.6067 35.0196 75.9878ZM23.2056 27.0547C34.2021 15.6033 50.3146 6 70.5 6C90.6854 6 106.798 15.6033 117.794 27.0547C123.294 32.782 127.563 39.0174 130.469 44.8526C133.345 50.6279 135 56.2422 135 60.7004C135 62.6917 134.695 64.5444 133.91 66.1623C133.1 67.8335 131.859 69.0852 130.291 69.9427C127.373 71.5387 123.454 71.6805 119.295 71.4267C115.792 71.213 111.589 70.6664 106.842 70.049L106.828 70.0471C105.779 69.9107 104.703 69.7708 103.603 69.6303C101.324 69.3394 98.9153 69.0423 96.3762 68.7605L99.4467 77.6245C101.201 82.6894 95.9396 87.3381 91.1295 84.9726L88.8779 83.8653C91.0259 96.1649 92.8326 108.96 93.1339 119.092C93.3014 124.723 93.0166 129.81 91.9215 133.59C91.3727 135.484 90.5535 137.293 89.2728 138.667C87.91 140.129 86.1065 141 83.9771 141H57.0229C54.8935 141 53.09 140.129 51.7272 138.667C50.4465 137.293 49.6273 135.484 49.0785 133.59C47.9834 129.81 47.6986 124.723 47.8661 119.092C48.1674 108.96 49.9741 96.1649 52.1221 83.8653L49.8705 84.9726C45.0605 87.3381 39.7987 82.6895 41.5533 77.6245L44.6238 68.7605C42.0847 69.0423 39.6761 69.3394 37.3974 69.6303C36.2984 69.7706 35.2243 69.9103 34.1766 70.0466L34.1719 70.0472L34.1582 70.049C29.4109 70.6664 25.2085 71.213 21.7053 71.4267C17.5459 71.6805 13.6266 71.5387 10.7086 69.9427C9.14094 69.0852 7.90011 67.8335 7.08982 66.1623C6.30539 64.5444 6 62.6917 6 60.7004C6 56.2422 7.65513 50.6279 10.5312 44.8526C13.4371 39.0174 17.7058 32.782 23.2056 27.0547Z" fill="#C08CD8"/>
<path d="M47.2227 79.5884L51.2011 68.104C53.5998 67.8935 56.0979 67.708 58.6961 67.5615C62.5385 67.3449 66.482 67.214 70.5 67.214C74.518 67.214 78.4615 67.3449 82.3039 67.5615C84.9021 67.708 87.4003 67.8935 89.7989 68.104L93.7773 79.5884L89.5078 77.4888C86.7713 76.1431 83.4606 77.0641 81.8122 79.6297L79.0852 83.874L73.704 80.4753C71.7468 79.2392 69.2532 79.2392 67.296 80.4753L61.9148 83.874L59.1878 79.6297C57.5394 77.0641 54.2287 76.1431 51.4922 77.4888L47.2227 79.5884Z" fill="#C08CD8"/>
<path d="M53.8634 119.27C54.1281 110.372 55.6196 99.1627 57.5092 87.9485C59.4358 90.0365 62.6343 90.5161 65.1188 88.9469L70.5 85.5482L75.8812 88.9469C78.3658 90.5161 81.5642 90.0365 83.4908 87.9485C85.3804 99.1627 86.8719 110.372 87.1366 119.27C87.2994 124.745 86.985 129.068 86.1585 131.921C85.7464 133.343 85.2741 134.157 84.8836 134.576C84.5752 134.907 84.3276 135 83.9771 135H57.0229C56.6724 135 56.4248 134.907 56.1164 134.576C55.7259 134.157 55.2536 133.343 54.8415 131.921C54.015 129.068 53.7006 124.745 53.8634 119.27Z" fill="#C08CD8"/>
<path fill-rule="evenodd" clip-rule="evenodd" d="M57.721 25.1939L57.7206 25.1926C57.7206 25.1926 57.7188 25.1896 57.7178 25.1877L57.7206 25.1926L57.7227 25.1965L57.721 25.1939Z" fill="#C08CD8"/>
</svg>
